<?xml version="1.0" encoding="utf-8"?>
<!-- Generator: Adobe Illustrator 18.0.0, SVG Export Plug-In . SVG Version: 6.00 Build 0)  -->
<!DOCTYPE svg PUBLIC "-//W3C//DTD SVG 1.1//EN" "http://www.w3.org/Graphics/SVG/1.1/DTD/svg11.dtd">
<svg version="1.1" id="Capa_1" xmlns="http://www.w3.org/2000/svg" xmlns:xlink="http://www.w3.org/1999/xlink" x="0px" y="0px"
	 viewBox="0 0 144.4 100.4" enable-background="new 0 0 144.4 100.4" xml:space="preserve">
<g>
	<rect x="29.2" y="35.2" fill-rule="evenodd" clip-rule="evenodd" fill="#00A2DD" width="14.9" height="13.5"/>
	<rect x="11.6" y="35.2" fill-rule="evenodd" clip-rule="evenodd" fill="#00A2DD" width="14.9" height="13.5"/>
	<rect x="46.7" y="35.2" fill-rule="evenodd" clip-rule="evenodd" fill="#00A2DD" width="14.9" height="13.5"/>
	<rect x="64.3" y="35.2" fill-rule="evenodd" clip-rule="evenodd" fill="#00A2DD" width="14.9" height="13.5"/>
	<rect x="81.9" y="35.2" fill-rule="evenodd" clip-rule="evenodd" fill="#00A2DD" width="14.9" height="13.5"/>
	<rect x="29.2" y="18.9" fill-rule="evenodd" clip-rule="evenodd" fill="#00A2DD" width="14.9" height="13.5"/>
	<rect x="46.7" y="18.9" fill-rule="evenodd" clip-rule="evenodd" fill="#00A2DD" width="14.9" height="13.5"/>
	<rect x="64.3" y="18.9" fill-rule="evenodd" clip-rule="evenodd" fill="#00A2DD" width="14.9" height="13.5"/>
	<rect x="64.3" y="2.7" fill-rule="evenodd" clip-rule="evenodd" fill="#00A2DD" width="14.9" height="13.5"/>
	<path fill-rule="evenodd" clip-rule="evenodd" fill="#00A2DD" d="M141.1,39.4c-3.1-2.1-11.1-2.9-16.9-1.4c-0.3-5.8-3.3-10.7-8.8-15
		l-2-1.4l-1.4,2c-2.7,4-3.8,9.4-3.4,14.3c0.3,3,1.4,6.4,3.4,8.9c-1.5,1.2-6.4,3.5-12.9,3.4H2.4c-1.7,10.2,1.2,49,46,49
		c33.2,0,60.6-14.9,73.1-46.3c4.1,0.1,15,0.7,20.3-9.5c0.1-0.2,1.4-2.7,1.4-2.7L141.1,39.4z"/>
</g>
<g>
	<defs>
		<path id="SVGID_1_" d="M38.2,80.8c-11,3.8-22.9,4.4-25.4,4.3c8.3,6.9,23,19.9,47.4,12.5C55.7,96.4,45.2,92.4,38.2,80.8z"/>
	</defs>
	<clipPath id="SVGID_2_">
		<use xlink:href="#SVGID_1_"  overflow="visible"/>
	</clipPath>
	<g clip-path="url(#SVGID_2_)">
		<defs>
			<rect id="SVGID_3_" x="-75" y="-52.8" width="276" height="276"/>
		</defs>
		<clipPath id="SVGID_4_">
			<use xlink:href="#SVGID_3_"  overflow="visible"/>
		</clipPath>
		<rect x="6" y="74.1" clip-path="url(#SVGID_4_)" fill="#FFFFFF" width="60.9" height="32.5"/>
	</g>
</g>
<path fill-rule="evenodd" clip-rule="evenodd" fill="#0175BB" d="M37,78.5c-5.3,3-11.5,4.7-18,4.7c-3.3,0-6.5-0.4-9.6-1.3
	c1.9,3.2,1.9,3.2,1.9,3.2c2.5,0.5,5,0.7,7.6,0.7c7,0,13.6-1.8,19.3-5.1C37.8,80.1,37.4,79.3,37,78.5z"/>
<ellipse fill-rule="evenodd" clip-rule="evenodd" fill="#FFFFFF" cx="47.3" cy="72" rx="4.7" ry="4.7"/>
<path fill="#495965" d="M48,70.6c0-0.4,0.2-0.8,0.5-1.1c-0.4-0.2-0.8-0.3-1.2-0.3c-1.5,0-2.7,1.2-2.7,2.7c0,1.5,1.2,2.7,2.7,2.7
	c1.5,0,2.7-1.2,2.7-2.7c0-0.1,0-0.1,0-0.2c-0.2,0.1-0.4,0.2-0.6,0.2C48.6,72,48,71.4,48,70.6z"/>
<path opacity="5.000000e-02" fill-rule="evenodd" clip-rule="evenodd" d="M140.7,39.1c-3-2-11.4-3-16.9-1.4l-1.2,1.8
	C104.4,77,81.8,92.9,50.8,93.6C16.9,93.5,8.5,75.7,6.1,51.4H0.7C0,61.6,2.6,99.1,47.7,99.1c33.3,0,60.7-14.9,73.3-46.2
	c4.1,0.1,15.6,0.1,20.7-10.2l1-2.2L140.7,39.1z"/>
<g>
	<rect x="14.3" y="37.9" fill="#0075BC" width="1.4" height="8.1"/>
	<rect x="18.3" y="37.9" fill="#0075BC" width="1.4" height="8.1"/>
	<rect x="22.4" y="37.9" fill="#0075BC" width="1.4" height="8.1"/>
	<rect x="31.9" y="37.9" fill="#0075BC" width="1.4" height="8.1"/>
	<rect x="35.9" y="37.9" fill="#0075BC" width="1.4" height="8.1"/>
	<rect x="40" y="37.9" fill="#0075BC" width="1.4" height="8.1"/>
	<rect x="49.4" y="37.9" fill="#0075BC" width="1.4" height="8.1"/>
	<rect x="53.5" y="37.9" fill="#0075BC" width="1.4" height="8.1"/>
	<rect x="57.6" y="37.9" fill="#0075BC" width="1.4" height="8.1"/>
	<rect x="67" y="37.9" fill="#0075BC" width="1.4" height="8.1"/>
	<rect x="71.1" y="37.9" fill="#0075BC" width="1.4" height="8.1"/>
	<rect x="75.2" y="37.9" fill="#0075BC" width="1.4" height="8.1"/>
	<rect x="84.6" y="37.9" fill="#0075BC" width="1.4" height="8.1"/>
	<rect x="88.7" y="37.9" fill="#0075BC" width="1.4" height="8.1"/>
	<rect x="92.7" y="37.9" fill="#0075BC" width="1.4" height="8.1"/>
	<rect x="35.9" y="21.6" fill="#0075BC" width="1.4" height="8.1"/>
	<rect x="40" y="21.6" fill="#0075BC" width="1.4" height="8.1"/>
	<rect x="49.4" y="21.6" fill="#0075BC" width="1.4" height="8.1"/>
	<rect x="53.5" y="21.6" fill="#0075BC" width="1.4" height="8.1"/>
	<rect x="57.6" y="21.6" fill="#0075BC" width="1.4" height="8.1"/>
	<rect x="67" y="21.6" fill="#0075BC" width="1.4" height="8.1"/>
	<rect x="71.1" y="21.6" fill="#0075BC" width="1.4" height="8.1"/>
	<rect x="75.2" y="21.6" fill="#0075BC" width="1.4" height="8.1"/>
	<rect x="71.1" y="5.4" fill="#0075BC" width="1.4" height="8.1"/>
	<rect x="67" y="5.4" fill="#0075BC" width="1.4" height="8.1"/>
	<rect x="75.2" y="5.4" fill="#0075BC" width="1.4" height="8.1"/>
	<rect x="31.9" y="21.6" fill="#0075BC" width="1.4" height="8.1"/>
	<path fill="#0075BC" d="M141.4,38c-3.3-2.2-10.7-3-16.5-1.9c-0.7-5.5-3.8-10.2-9.2-14.4l-3.2-2.1l-2.1,3.2c-2.8,4.2-4,9.8-3.6,15.2
		c0.3,3.1,1.3,6,2.8,8.4c-2.3,1.3-6.1,2.3-10.1,2.4V32.5H81.9V18.9v-2.7V0H61.6v16.2H46.7H44H26.4v16.2H8.9v16.2H2H0.8l-0.2,1.1
		c-0.5,3.1-0.5,7.7,0.2,12.4c0.9,5.9,2.7,11.7,5.6,16.8c7.5,13.5,21.1,21.4,41.6,21.4c34.8,0,61.5-16.1,74-46.3
		c4.2,0.1,7.1-0.2,10.4-1.3c4.4-1.5,7.8-4.4,10.2-8.9c0.1-0.2,0.3-0.6,0.7-1.4c0.1-0.3,0.3-0.6,0.5-0.9c0.1-0.1,0.1-0.2,0.2-0.4
		l0.5-1.1L141.4,38z M81.9,35.2h14.9v13.5l-14.9,0V35.2z M64.3,2.7h14.9v13.5H64.3V2.7z M64.3,18.9h14.9v13.5H64.3V18.9z M64.3,35.2
		h14.9v13.5H64.3V35.2z M46.7,18.9h14.9v13.5H46.7V18.9z M46.7,35.2h14.9v13.5l-14.9,0V35.2z M29.2,18.9H44v13.5H29.2V18.9z
		 M29.2,35.2H44v13.5H29.2V35.2z M11.6,35.2h14.9v13.5l-14.9,0V35.2z M140.8,41.3c-0.2,0.3-0.3,0.6-0.4,0.8
		c-0.1,0.1-0.1,0.2-0.2,0.4c-2,3.9-5,6.3-8.7,7.6c-3,1-5.6,1.3-9.7,1.2c0,0-0.3,0-0.7,0l-0.9,0l-0.3,0.9
		C107.9,81.9,82.1,97.7,48,97.7c-19.5,0-32.2-7.4-39.3-20C6,72.9,4.3,67.4,3.5,61.8c-0.6-3.9-0.6-7.6-0.3-10.4h5.7v0h17.6h2.7H44
		h2.7h14.9h2.7h14.9h2.7h17.6v0c5.4-0.1,10.4-1.7,12.9-3.7l1.1-0.9l-0.9-1.1c-1.7-2-2.8-5-3.1-8.1c-0.4-4.7,0.8-9.8,3.2-13.4
		l0.6-0.9l0.9,0.6c5.3,4.1,7.9,8.7,8.2,14l0.1,1.7l1.6-0.4c5.3-1.4,13-0.7,15.8,1.2l1,0.7C140.9,41.1,140.9,41.2,140.8,41.3z"/>
</g>
</svg>
